<mxfile host="app.diagrams.net" agent="Mozilla/5.0 (Windows NT 10.0; Win64; x64) AppleWebKit/537.36 (KHTML, like Gecko) Chrome/128.0.0.0 Safari/537.36" version="24.7.12">
  <diagram name="Trang-1" id="aVE2iGBXQXQZTj1x8izT">
    <mxGraphModel dx="880" dy="472" grid="1" gridSize="10" guides="1" tooltips="1" connect="1" arrows="1" fold="1" page="1" pageScale="1" pageWidth="827" pageHeight="1169" math="0" shadow="0">
      <root>
        <mxCell id="0" />
        <mxCell id="1" parent="0" />
        <mxCell id="YRbvxsHbR8lPw9R-UTV5-1" value="" style="whiteSpace=wrap;html=1;aspect=fixed;" vertex="1" parent="1">
          <mxGeometry x="80" y="80" width="240" height="240" as="geometry" />
        </mxCell>
        <mxCell id="YRbvxsHbR8lPw9R-UTV5-2" value="" style="rounded=0;whiteSpace=wrap;html=1;" vertex="1" parent="1">
          <mxGeometry x="80" y="20" width="240" height="60" as="geometry" />
        </mxCell>
        <mxCell id="YRbvxsHbR8lPw9R-UTV5-3" value="Shape&lt;div&gt;&lt;br&gt;&lt;/div&gt;" style="text;html=1;align=center;verticalAlign=middle;whiteSpace=wrap;rounded=0;strokeWidth=8;" vertex="1" parent="1">
          <mxGeometry x="120" y="20" width="180" height="60" as="geometry" />
        </mxCell>
        <mxCell id="YRbvxsHbR8lPw9R-UTV5-5" value="- shapeName: String&lt;div&gt;- color : String&lt;/div&gt;" style="text;html=1;align=left;verticalAlign=middle;whiteSpace=wrap;rounded=0;" vertex="1" parent="1">
          <mxGeometry x="110" y="90" width="140" height="30" as="geometry" />
        </mxCell>
        <mxCell id="YRbvxsHbR8lPw9R-UTV5-6" value="" style="endArrow=none;html=1;rounded=0;" edge="1" parent="1">
          <mxGeometry width="50" height="50" relative="1" as="geometry">
            <mxPoint x="80" y="120" as="sourcePoint" />
            <mxPoint x="322" y="120" as="targetPoint" />
            <Array as="points">
              <mxPoint x="100" y="120" />
              <mxPoint x="280" y="120" />
            </Array>
          </mxGeometry>
        </mxCell>
        <mxCell id="YRbvxsHbR8lPw9R-UTV5-7" value="&lt;div style=&quot;text-align: left;&quot;&gt;&lt;span style=&quot;background-color: initial;&quot;&gt;+ Shape()&lt;/span&gt;&lt;/div&gt;&lt;div style=&quot;text-align: left;&quot;&gt;+ Shape(shapeName: String, color: String)&lt;br&gt;&lt;/div&gt;&lt;div style=&quot;text-align: left;&quot;&gt;&amp;nbsp;+ setShapeName(shapeName: String): void&lt;br&gt;&lt;/div&gt;&lt;div style=&quot;text-align: left;&quot;&gt;+ getShapeName(): String&amp;nbsp;&lt;br&gt;&lt;/div&gt;&lt;div style=&quot;text-align: left;&quot;&gt;+ setColor(color: String): void&lt;br&gt;&lt;/div&gt;&lt;div style=&quot;text-align: left;&quot;&gt;+ getColor(): String&lt;br&gt;&lt;/div&gt;&lt;div style=&quot;text-align: left;&quot;&gt;+ toString(): String&amp;nbsp;&lt;br&gt;&lt;/div&gt;" style="text;html=1;align=center;verticalAlign=middle;whiteSpace=wrap;rounded=0;" vertex="1" parent="1">
          <mxGeometry x="75" y="140" width="250" height="130" as="geometry" />
        </mxCell>
        <mxCell id="YRbvxsHbR8lPw9R-UTV5-9" value="" style="rounded=0;whiteSpace=wrap;html=1;" vertex="1" parent="1">
          <mxGeometry x="520" y="20" width="240" height="60" as="geometry" />
        </mxCell>
        <mxCell id="YRbvxsHbR8lPw9R-UTV5-10" value="" style="whiteSpace=wrap;html=1;aspect=fixed;" vertex="1" parent="1">
          <mxGeometry x="520" y="80" width="240" height="240" as="geometry" />
        </mxCell>
        <mxCell id="YRbvxsHbR8lPw9R-UTV5-12" value="" style="endArrow=none;html=1;rounded=0;" edge="1" parent="1" target="YRbvxsHbR8lPw9R-UTV5-10">
          <mxGeometry width="50" height="50" relative="1" as="geometry">
            <mxPoint x="520" y="120" as="sourcePoint" />
            <mxPoint x="570" y="70" as="targetPoint" />
            <Array as="points">
              <mxPoint x="760" y="120" />
            </Array>
          </mxGeometry>
        </mxCell>
        <mxCell id="YRbvxsHbR8lPw9R-UTV5-13" value="&amp;nbsp;Rectangle" style="text;html=1;align=center;verticalAlign=middle;whiteSpace=wrap;rounded=0;" vertex="1" parent="1">
          <mxGeometry x="510" y="40" width="250" height="30" as="geometry" />
        </mxCell>
        <mxCell id="YRbvxsHbR8lPw9R-UTV5-14" value="&lt;div&gt;&amp;nbsp;- width: double&amp;nbsp;&lt;/div&gt;&lt;div&gt;&lt;span style=&quot;background-color: initial;&quot;&gt;- height: double&lt;/span&gt;&lt;/div&gt;" style="text;html=1;align=center;verticalAlign=middle;whiteSpace=wrap;rounded=0;" vertex="1" parent="1">
          <mxGeometry x="540" y="80" width="200" height="40" as="geometry" />
        </mxCell>
        <mxCell id="YRbvxsHbR8lPw9R-UTV5-15" value="&lt;div&gt;&amp;nbsp;+ Rectangle(_shapeName: String, _color: String, _width: double, _height: double)&amp;nbsp;&lt;/div&gt;&lt;div&gt;&lt;div&gt;+ setWidth(_width: double): void&amp;nbsp;&lt;/div&gt;&lt;div&gt;&lt;span style=&quot;background-color: initial;&quot;&gt;+ getWidth(): double&lt;/span&gt;&lt;/div&gt;&lt;/div&gt;&lt;div&gt;&lt;div&gt;+ setHeight(_height: double): void&amp;nbsp;&lt;/div&gt;&lt;div&gt;&amp;nbsp;+ getHeight(): double&lt;/div&gt;&lt;div&gt;&amp;nbsp;+ toString(): String&amp;nbsp;&lt;/div&gt;&lt;div&gt;&lt;span style=&quot;background-color: initial;&quot;&gt;+ calArea(): double&lt;/span&gt;&lt;span style=&quot;background-color: initial;&quot;&gt;&amp;nbsp;&lt;/span&gt;&lt;/div&gt;&lt;/div&gt;" style="text;html=1;align=left;verticalAlign=middle;whiteSpace=wrap;rounded=0;" vertex="1" parent="1">
          <mxGeometry x="525" y="120" width="230" height="200" as="geometry" />
        </mxCell>
        <mxCell id="YRbvxsHbR8lPw9R-UTV5-16" value="" style="endArrow=classic;html=1;rounded=0;entryX=1.008;entryY=0.392;entryDx=0;entryDy=0;entryPerimeter=0;" edge="1" parent="1" target="YRbvxsHbR8lPw9R-UTV5-7">
          <mxGeometry width="50" height="50" relative="1" as="geometry">
            <mxPoint x="510" y="190" as="sourcePoint" />
            <mxPoint x="430" y="140" as="targetPoint" />
            <Array as="points">
              <mxPoint x="420" y="191" />
            </Array>
          </mxGeometry>
        </mxCell>
      </root>
    </mxGraphModel>
  </diagram>
</mxfile>
